<?xml version="1.0" encoding="UTF-8" standalone="no"?>
<!-- Created with Inkscape (http://www.inkscape.org/) -->

<svg
   xmlns:dc="http://purl.org/dc/elements/1.1/"
   xmlns:cc="http://creativecommons.org/ns#"
   xmlns:rdf="http://www.w3.org/1999/02/22-rdf-syntax-ns#"
   xmlns:svg="http://www.w3.org/2000/svg"
   xmlns="http://www.w3.org/2000/svg"
   xmlns:sodipodi="http://sodipodi.sourceforge.net/DTD/sodipodi-0.dtd"
   xmlns:inkscape="http://www.inkscape.org/namespaces/inkscape"
   id="svg3004"
   version="1.1"
   inkscape:version="0.48.4 r9943 custom"
   width="2171.5752"
   height="771.98877"
   xml:space="preserve"
   sodipodi:docname="konux logo horizontal illustrator.ai"><metadata
     id="metadata3010"><rdf:RDF><cc:Work
         rdf:about=""><dc:format>image/svg+xml</dc:format><dc:type
           rdf:resource="http://purl.org/dc/dcmitype/StillImage" /><dc:title></dc:title></cc:Work></rdf:RDF></metadata><defs
     id="defs3008"><linearGradient
       x1="0"
       y1="0"
       x2="1"
       y2="0"
       gradientUnits="userSpaceOnUse"
       gradientTransform="matrix(-553.48315,4.58e-5,4.58e-5,553.48315,862.14453,582.77637)"
       spreadMethod="pad"
       id="linearGradient3026"><stop
         style="stop-opacity:1;stop-color:#3d86cf"
         offset="0"
         id="stop3028" /><stop
         style="stop-opacity:1;stop-color:#54c7e6"
         offset="1"
         id="stop3030" /></linearGradient><linearGradient
       x1="0"
       y1="0"
       x2="1"
       y2="0"
       gradientUnits="userSpaceOnUse"
       gradientTransform="matrix(-553.48541,4.58e-5,4.58e-5,553.48541,862.14648,416.64063)"
       spreadMethod="pad"
       id="linearGradient3046"><stop
         style="stop-opacity:1;stop-color:#3d86cf"
         offset="0"
         id="stop3048" /><stop
         style="stop-opacity:1;stop-color:#54c7e6"
         offset="1"
         id="stop3050" /></linearGradient><linearGradient
       x1="0"
       y1="0"
       x2="1"
       y2="0"
       gradientUnits="userSpaceOnUse"
       gradientTransform="matrix(-553.50562,4.58e-5,4.58e-5,553.50562,862.1543,583.49805)"
       spreadMethod="pad"
       id="linearGradient3066"><stop
         style="stop-opacity:1;stop-color:#3d86cf"
         offset="0"
         id="stop3068" /><stop
         style="stop-opacity:1;stop-color:#54c7e6"
         offset="1"
         id="stop3070" /></linearGradient><linearGradient
       x1="0"
       y1="0"
       x2="1"
       y2="0"
       gradientUnits="userSpaceOnUse"
       gradientTransform="matrix(-553.48523,4.58e-5,4.58e-5,553.48523,862.14648,748.81055)"
       spreadMethod="pad"
       id="linearGradient3086"><stop
         style="stop-opacity:1;stop-color:#3d86cf"
         offset="0"
         id="stop3088" /><stop
         style="stop-opacity:1;stop-color:#54c7e6"
         offset="1"
         id="stop3090" /></linearGradient><clipPath
       clipPathUnits="userSpaceOnUse"
       id="clipPath3098"><path
         d="m 0,1187.904 2377.125,0 L 2377.125,0 0,0 0,1187.904 z"
         id="path3100"
         inkscape:connector-curvature="0" /></clipPath></defs><sodipodi:namedview
     pagecolor="#ffffff"
     bordercolor="#666666"
     borderopacity="1"
     objecttolerance="10"
     gridtolerance="10"
     guidetolerance="10"
     inkscape:pageopacity="0"
     inkscape:pageshadow="2"
     inkscape:window-width="640"
     inkscape:window-height="480"
     id="namedview3006"
     showgrid="false"
     fit-margin-top="0"
     fit-margin-left="0"
     fit-margin-right="0"
     fit-margin-bottom="0"
     inkscape:zoom="0.14504948"
     inkscape:cx="1100.8775"
     inkscape:cy="400.58125"
     inkscape:window-x="0"
     inkscape:window-y="23"
     inkscape:window-maximized="0"
     inkscape:current-layer="g3012" /><g
     id="g3012"
     inkscape:groupmode="layer"
     inkscape:label="konux logo horizontal illustrator"
     transform="matrix(1.25,0,0,-1.25,-384.8225,1113.845)"><g
       id="g3014"><g
         id="g3016"><g
           id="g3022"><g
             id="g3024"><path
               d="m 313.022,726.821 c -1.005,-0.636 -1.854,-1.616 -2.291,-2.735 l 0,0 c -0.143,-0.367 -0.249,-0.752 -0.367,-1.128 l 0,0 c -1.606,-5.073 -2.506,-10.176 -2.506,-14.995 l 0,0 0,-251.365 c 0,-4.409 0.755,-9.055 2.115,-13.696 l 0,0 c 0.153,-0.523 0.284,-1.061 0.485,-1.577 l 0,0 c 0.825,-2.091 3.02,-3.45 5.421,-3.45 l 0,0 c 0.988,0 1.937,0.202 2.739,0.663 l 0,0 c 0.235,0.135 0.914,0.581 0.914,0.581 l 0,0 2.741,1.745 219.217,142.308 -222.075,143.523 c 0,0 -0.319,0.209 -0.429,0.272 l 0,0 c -0.814,0.471 -1.658,0.67 -2.665,0.706 l 0,0 c -0.059,0.003 -0.12,0.004 -0.181,0.004 l 0,0 c -1.026,0 -2.272,-0.318 -3.118,-0.856"
               style="fill:url(#linearGradient3026);stroke:none"
               id="path3032"
               inkscape:connector-curvature="0" /></g></g></g></g><g
       id="g3034"><g
         id="g3036"><g
           id="g3042"><g
             id="g3044"><path
               d="m 323.547,429.92 c 0,0 -0.641,-0.321 -0.846,-0.438 l 0,0 c -1.728,-0.993 -2.807,-2.931 -2.807,-5.068 l 0,0 c 0,-1.118 0.269,-2.186 0.844,-3.057 l 0,0 c 0.215,-0.323 0.459,-0.63 0.694,-0.942 l 0,0 c 4.507,-5.951 9.842,-10.994 15.573,-14.304 l 0,0 217.69,-125.685 c 7.998,-4.616 18.532,-6.933 29.073,-6.941 l 0,0 0.154,0 c 10.541,0.008 21.074,2.325 29.071,6.941 l 0,0 200.818,115.941 c 0,0 0.4,0.226 0.529,0.307 l 0,0 c 1.561,0.954 2.599,2.66 2.756,4.586 l 0,0 0,0.996 c -0.15,1.83 -1.095,3.459 -2.534,4.432 l 0,0 c -0.109,0.076 -0.443,0.287 -0.443,0.287 l 0,0 L 577.658,559.797 323.547,429.92 z"
               style="fill:url(#linearGradient3046);stroke:none"
               id="path3052"
               inkscape:connector-curvature="0" /></g></g></g></g><g
       id="g3054"><g
         id="g3056"><g
           id="g3062"><g
             id="g3064"><path
               d="m 851.652,699.961 c -0.274,-0.118 -1.067,-0.543 -1.067,-0.543 l 0,0 L 623.384,583.187 850.837,467.412 c 0,0 0.351,-0.183 0.471,-0.241 l 0,0 c 0.76,-0.365 1.615,-0.552 2.513,-0.552 l 0,0 c 3.151,0 5.87,2.401 6.012,5.489 l 0,0 c 0.013,0.276 0,1.116 0,1.116 l 0,0 0,220.426 c 0,0 0.02,1.027 0,1.368 l 0,0 c -0.171,3.029 -2.89,5.358 -5.995,5.358 l 0,0 c -0.774,0 -1.524,-0.114 -2.186,-0.415"
               style="fill:url(#linearGradient3066);stroke:none"
               id="path3072"
               inkscape:connector-curvature="0" /></g></g></g></g><g
       id="g3074"><g
         id="g3076"><g
           id="g3082"><g
             id="g3084"><path
               d="m 583.77,891.076 c -10.543,-0.01 -21.077,-2.323 -29.075,-6.942 l 0,0 -217.69,-125.685 c -5.383,-3.107 -10.42,-7.743 -14.754,-13.217 l 0,0 c -0.321,-0.412 -0.668,-0.804 -0.956,-1.242 l 0,0 c -0.559,-0.843 -0.8,-1.895 -0.8,-2.981 l 0,0 c 0,-2.11 1.045,-4.041 2.744,-5.029 l 0,0 c 0.243,-0.139 0.999,-0.522 0.999,-0.522 l 0,0 0.028,-0.014 253.231,-128.899 234.602,152.298 c 0,0 0.31,0.196 0.41,0.265 l 0,0 c 1.44,0.976 2.394,2.604 2.544,4.439 l 0,0 0,0.992 c -0.141,1.728 -0.939,3.344 -2.293,4.258 l 0,0 c -0.358,0.243 -1.499,0.868 -1.499,0.868 l 0,0 -198.268,114.469 c -7.997,4.619 -18.532,6.932 -29.071,6.942 l 0,0 -0.152,0 z"
               style="fill:url(#linearGradient3086);stroke:none"
               id="path3092"
               inkscape:connector-curvature="0" /></g></g></g></g><g
       id="g3094"><g
         id="g3096"
         clip-path="url(#clipPath3098)"><g
           id="g3102"
           transform="translate(1580.6494,697.7612)"><path
             d="m 0,0 29.551,0 0.857,-230.208 -35.485,0 c -32.291,58.168 -64.807,117.506 -97.349,176.078 -0.454,-0.101 -0.903,-0.221 -1.365,-0.322 -0.63,-8.234 0.134,-16.497 0.073,-24.738 -0.051,-8.337 -0.033,-16.701 0,-25.054 l 0,-25.056 0,-25.045 0,-25.053 0,-25.042 0,-25.768 -29.216,0 0,230.208 35.515,0 c 32.121,-58.942 64.408,-118.427 96.684,-177.664 L 0,-177.237 0,0 z"
             style="fill:#231f20;fill-opacity:1;fill-rule:nonzero;stroke:none"
             id="path3104"
             inkscape:connector-curvature="0" /></g><g
           id="g3106"
           transform="translate(1251.7578,581.3535)"><path
             d="m 0,0 c 0.071,-19.855 0.025,-39.724 0,-59.572 -0.019,-3.892 1.077,-7.355 3.799,-10.054 5.298,-5.229 10.706,-10.325 16.197,-15.344 2.623,-2.414 5.98,-3.135 9.502,-3.099 17.709,0.064 35.415,0.11 53.12,0.189 3.388,0.017 6.595,0.73 9.161,3.019 4.992,4.433 10.077,8.814 14.742,13.574 2.926,2.978 4.578,6.641 4.552,11.18 -0.207,40.494 0.302,80.97 0,121.44 -0.011,2.599 -1.356,5.496 -2.763,7.702 -4.691,7.363 -11.043,13.189 -18.324,17.901 -2.087,1.344 -4.955,2.134 -7.464,2.156 C 64.432,89.197 46.346,89.155 28.258,88.865 25.524,88.813 22.315,87.879 20.221,86.224 14.885,82.002 9.915,77.317 5.107,72.5 1.113,68.494 0.04,63.537 0,57.671 -0.133,38.426 -0.071,19.226 0,0 m 140.765,0.278 c 0.078,-19.728 0.163,-39.48 0.209,-59.214 0.015,-3.635 0.1,-7.316 -0.304,-10.928 -0.686,-6.173 -3.264,-11.607 -7.324,-16.357 -7.002,-8.172 -14.314,-16.082 -23.178,-22.283 -7.196,-5.04 -15.371,-5.21 -24.176,-5.296 -19.221,-0.218 -38.466,0.271 -57.682,0 -11.665,-0.148 -22.052,0.445 -30.747,7.998 -7.059,6.122 -13.614,12.814 -20.013,19.632 -4.638,4.933 -7.128,11.188 -7.441,17.989 -0.162,3.535 0.02,7.073 0,10.608 -0.16,39.736 0.164,79.464 0,119.197 -0.03,7.4 -0.113,14.807 4.246,21.124 2.773,4.051 6.009,7.83 9.378,11.388 3.913,4.137 8.078,8.049 12.34,11.798 8.571,7.564 18.551,11.492 30.098,11.479 18.206,-0.015 36.433,-0.136 54.649,0.254 14.059,0.331 26.155,-3.944 36.097,-13.778 5.948,-5.852 11.681,-11.949 17.085,-18.271 5.301,-6.23 7.031,-13.856 6.717,-21.943 -0.082,-1.771 -0.164,-3.536 -0.151,-5.31 C 140.625,39 140.69,19.646 140.765,0.278"
             style="fill:#231f20;fill-opacity:1;fill-rule:nonzero;stroke:none"
             id="path3108"
             inkscape:connector-curvature="0" /></g><g
           id="g3110"
           transform="translate(1665.3408,698.5454)"><path
             d="m 0,0 29.937,0 c 0.091,-1.846 0.22,-3.551 0.22,-5.148 0.228,-56.435 0.483,-112.855 0.576,-169.266 0,-4.773 1.233,-8.793 4.656,-11.945 5.479,-5.03 10.943,-10.109 16.805,-14.656 2.121,-1.632 5.357,-2.454 8.11,-2.485 14.297,-0.195 28.587,-0.008 42.891,0.045 3.774,0.013 7.227,0.935 10.15,3.475 2.194,1.916 4.435,3.765 6.653,5.636 8.381,7.048 12.124,15.306 11.94,26.955 -0.869,54.146 -0.7,108.288 -0.904,162.444 -0.008,1.607 -0.013,3.006 -0.018,4.945 l 30.196,0 c 0.101,-1.717 0.262,-2.973 0.269,-4.565 0.231,-57.06 0.29,-114.108 0.78,-171.167 0.107,-11.808 -2.715,-21.976 -11.248,-30.255 -5.798,-5.624 -11.484,-11.413 -17.666,-16.58 -7.854,-6.535 -17.253,-8.375 -27.431,-8.425 -15.823,-0.083 -31.642,0.182 -47.436,0 -11.058,-0.109 -21.149,1.792 -29.463,8.936 -7.352,6.317 -14.132,13.373 -20.75,20.473 -5.983,6.452 -8.224,14.775 -8.267,23.215 -0.359,58.198 -0.055,116.276 0,174.59 0,1.096 -0.113,2.417 0,3.778"
             style="fill:#231f20;fill-opacity:1;fill-rule:nonzero;stroke:none"
             id="path3112"
             inkscape:connector-curvature="0" /></g><g
           id="g3114"
           transform="translate(1187.5176,467.5537)"><path
             d="m 0,0 -39.891,0 c -30.207,33.273 -60.442,65.544 -90.523,98.667 l -4.317,-0.015 0,-98.652 -30.31,0 0,230.078 29.274,0 0,-101.319 c 2.914,-2.128 4.922,-1.207 6.608,0.696 5.31,5.951 10.665,11.843 15.949,17.811 14.772,16.661 29.514,33.328 44.29,49.975 8.808,9.952 17.624,21.504 26.424,31.459 0.581,0.652 1.039,1.501 1.379,1.976 l 40.203,0 C -35.914,191.922 -70.48,152.079 -105.312,113.521 -70.212,75.379 -35.382,38.471 0,0"
             style="fill:#231f20;fill-opacity:1;fill-rule:nonzero;stroke:none"
             id="path3116"
             inkscape:connector-curvature="0" /></g><g
           id="g3118"
           transform="translate(2045.1182,467.5537)"><path
             d="M 0,0 -33.527,0 C -52.559,29.888 -71.753,58.77 -91.5,89.756 -110.816,58.737 -129.618,30.215 -148.444,0 l -33.532,0 c 24.905,39.384 49.443,76.438 74.16,115.538 -23.875,37.446 -47.689,78.52 -71.803,116.36 l 33.14,0 c 17.935,-28.437 36.062,-60.769 54.772,-90.441 18.502,29.566 36.539,61.719 54.493,90.441 l 33.152,0 C -27.85,193.956 -51.327,153.369 -74.967,115.683 -50.03,76.842 -25.21,39.276 0,0"
             style="fill:#231f20;fill-opacity:1;fill-rule:nonzero;stroke:none"
             id="path3120"
             inkscape:connector-curvature="0" /></g></g></g></g></svg>